<?xml version="1.0" encoding="UTF-8" standalone="no"?>
<svg
   xmlns:dc="http://purl.org/dc/elements/1.1/"
   xmlns:cc="http://creativecommons.org/ns#"
   xmlns:rdf="http://www.w3.org/1999/02/22-rdf-syntax-ns#"
   xmlns:svg="http://www.w3.org/2000/svg"
   xmlns="http://www.w3.org/2000/svg"
   xmlns:sodipodi="http://sodipodi.sourceforge.net/DTD/sodipodi-0.dtd"
   xmlns:inkscape="http://www.inkscape.org/namespaces/inkscape"
   sodipodi:docname="logo.svg"
   inkscape:version="1.0 (4035a4fb49, 2020-05-01)"
   inkscape:export-ydpi="12"
   inkscape:export-xdpi="12"
   inkscape:export-filename="C:\projects\better-canvas\icons\icon16.png"
   id="svg8"
   version="1.1"
   viewBox="0 0 33.866666 33.866668"
   height="128"
   width="128">
  <defs
     id="defs2">
    <inkscape:path-effect
       effect="fillet_chamfer"
       id="path-effect836"
       is_visible="true"
       lpeversion="1"
       satellites_param="F,0,0,1,0,0.26458333,0,1 @ F,0,0,1,0,0.26458333,0,1 @ F,0,0,1,0,0.26458333,0,1 @ F,0,0,1,0,0.26458333,0,1 @ F,0,0,1,0,0.26458333,0,1 @ F,0,0,1,0,0.26458333,0,1 @ F,0,0,1,0,0.26458333,0,1 @ F,0,0,1,0,0.26458333,0,1 @ F,0,0,1,0,0.26458333,0,1 @ F,0,0,1,0,0.26458333,0,1 @ F,0,0,1,0,0.26458333,0,1 @ F,0,0,1,0,0.26458333,0,1"
       unit="px"
       method="auto"
       mode="F"
       radius="1"
       chamfer_steps="1"
       flexible="false"
       use_knot_distance="true"
       apply_no_radius="true"
       apply_with_radius="true"
       only_selected="false"
       hide_knots="false" />
    <inkscape:path-effect
       effect="fillet_chamfer"
       id="path-effect834"
       is_visible="true"
       lpeversion="1"
       satellites_param="F,0,0,1,0,0.26458333,0,1 @ F,0,0,1,0,0.26458333,0,1 @ F,0,0,1,0,0.26458333,0,1 @ F,0,0,1,0,0.26458333,0,1 @ F,0,0,1,0,0.26458333,0,1 @ F,0,0,1,0,0.26458333,0,1 @ F,0,0,1,0,0.26458333,0,1 @ F,0,0,1,0,0.26458333,0,1 @ F,0,0,1,0,0.26458333,0,1 @ F,0,0,1,0,0.26458333,0,1 @ F,0,0,1,0,0.26458333,0,1 @ F,0,0,1,0,0.26458333,0,1"
       unit="px"
       method="bezier"
       mode="IF"
       radius="1"
       chamfer_steps="1"
       flexible="false"
       use_knot_distance="true"
       apply_no_radius="true"
       apply_with_radius="true"
       only_selected="false"
       hide_knots="false" />
  </defs>
  <sodipodi:namedview
     inkscape:window-maximized="1"
     inkscape:window-y="1072"
     inkscape:window-x="-8"
     inkscape:window-height="1377"
     inkscape:window-width="2560"
     units="px"
     showgrid="false"
     inkscape:document-rotation="0"
     inkscape:current-layer="g839"
     inkscape:document-units="mm"
     inkscape:cy="87.815352"
     inkscape:cx="249.9506"
     inkscape:zoom="1.979899"
     inkscape:pageshadow="2"
     inkscape:pageopacity="0.0"
     borderopacity="1.0"
     bordercolor="#666666"
     pagecolor="#ffffff"
     id="base" />
  <metadata
     id="metadata5">
    <rdf:RDF>
      <cc:Work
         rdf:about="">
        <dc:format>image/svg+xml</dc:format>
        <dc:type
           rdf:resource="http://purl.org/dc/dcmitype/StillImage" />
        <dc:title />
      </cc:Work>
    </rdf:RDF>
  </metadata>
  <g
     id="layer1"
     inkscape:groupmode="layer"
     inkscape:label="Layer 1">
    <path
       id="path857"
       d="m 13.067466,31.344291 c -0.984829,-0.183069 -1.895038,-0.372975 -2.022688,-0.422028 -0.127663,-0.04904 -0.23209,-0.278385 -0.23209,-0.50963 0,-0.231224 0.208097,-0.822113 0.462468,-1.313041 0.254361,-0.490934 0.777248,-1.144126 1.161972,-1.451543 0.384728,-0.307413 1.086821,-0.703911 1.560222,-0.881114 0.473392,-0.177209 1.248044,-0.320189 1.721437,-0.317766 0.4734,0.0025 1.24621,0.13915 1.717359,0.303804 0.471149,0.164665 1.170542,0.556957 1.554208,0.871772 0.383665,0.314806 0.914566,1.001851 1.179786,1.526753 0.265217,0.524905 0.456668,1.134952 0.42545,1.355661 -0.05035,0.356003 -0.221896,0.434529 -1.519991,0.69584 -0.804775,0.16199 -2.082944,0.334945 -2.840381,0.384335 -0.964463,0.06289 -1.913729,-0.01002 -3.167745,-0.243057 z M 7.3796737,29.14394 C 6.7696967,28.796712 5.7334627,28.005209 5.0769377,27.385044 4.4204142,26.764869 3.5593851,25.830105 3.1635398,25.307788 2.7676944,24.785468 2.2436962,24.009058 1.9991007,23.582422 L 1.554381,22.806728 1.9450719,22.512823 c 0.2148892,-0.16165 0.7524582,-0.385118 1.1946021,-0.496603 0.442151,-0.111478 1.3257692,-0.16532 1.9635867,-0.119606 0.637825,0.04568 1.431773,0.212395 1.764334,0.370402 0.33256,0.158009 0.899136,0.573733 1.259059,0.923796 0.359926,0.350069 0.840391,1.022546 1.067711,1.494388 0.328846,0.68259 0.411228,1.124296 0.403146,2.161563 -0.0078,0.979412 -0.103956,1.493415 -0.387329,2.066593 -0.207448,0.419615 -0.454623,0.785208 -0.549307,0.812422 -0.09467,0.0273 -0.671216,-0.23461 -1.281201,-0.581834 z m 15.0717533,0.217998 c -0.153344,-0.234326 -0.365068,-0.828908 -0.47052,-1.321288 -0.10613,-0.495553 -0.141595,-1.325039 -0.07942,-1.857939 0.06175,-0.52949 0.27153,-1.272989 0.466145,-1.652215 0.194616,-0.379231 0.557513,-0.905407 0.806468,-1.169292 0.248946,-0.263879 0.803629,-0.69052 1.232617,-0.948076 0.702757,-0.421928 0.941877,-0.468244 2.415345,-0.467812 1.366588,3.44e-4 1.7549,0.06438 2.36269,0.389161 0.698812,0.373449 0.719123,0.407218 0.518041,0.861411 -0.115118,0.259982 -0.38545,0.744214 -0.600766,1.076038 -0.215324,0.33183 -0.525897,0.797244 -0.690182,1.034269 -0.164295,0.237028 -0.724759,0.886065 -1.2455,1.442325 -0.520732,0.556267 -1.632657,1.46771 -2.47094,2.025434 -0.838283,0.557722 -1.62339,1.014042 -1.744679,1.014042 -0.121285,0 -0.345977,-0.191716 -0.499302,-0.426058 z m -7.671449,-5.055486 c -0.288436,-0.288825 -0.524423,-0.668978 -0.524423,-0.844791 0,-0.175815 0.131078,-0.51145 0.291277,-0.745864 0.160197,-0.234411 0.373231,-0.483191 0.473394,-0.552844 0.100175,-0.06967 0.430869,-0.127832 0.734886,-0.129286 0.349481,-0.002 0.681839,0.136102 0.903753,0.374622 0.219222,0.235606 0.350998,0.611553 0.350998,1.001313 0,0.343233 -0.09708,0.757009 -0.215747,0.91951 -0.118661,0.162503 -0.502393,0.342026 -0.852733,0.398953 -0.551371,0.08961 -0.707481,0.03291 -1.161407,-0.421616 z M 9.1037347,22.09397 c -0.19625,-0.249799 -0.356782,-0.606291 -0.356782,-0.792195 0,-0.185913 0.131219,-0.560424 0.291576,-0.832279 0.166132,-0.2816 0.49776,-0.539618 0.770779,-0.599666 0.2635603,-0.058 0.6412163,-0.05388 0.8392343,0.0089 0.198016,0.06294 0.501949,0.348104 0.675404,0.633709 0.244384,0.402401 0.2806,0.641432 0.160883,1.061965 -0.08498,0.298473 -0.28576,0.639641 -0.446216,0.758147 -0.160458,0.118505 -0.581183,0.215495 -0.934926,0.215495 -0.4898013,0 -0.7282623,-0.108317 -0.9999623,-0.454186 z m 11.1768613,0.109431 c -0.224893,-0.225195 -0.34429,-0.574586 -0.34429,-1.007541 0,-0.449232 0.113693,-0.765819 0.352851,-0.982549 0.201045,-0.182209 0.609997,-0.319756 0.950619,-0.319756 0.384507,0 0.731514,0.133929 0.972658,0.375394 0.241152,0.241465 0.374892,0.588951 0.374892,0.97398 0,0.341078 -0.137357,0.750572 -0.319323,0.951898 -0.216433,0.239474 -0.532594,0.35333 -0.981226,0.35333 -0.432368,0 -0.78128,-0.119549 -1.006181,-0.344756 z M 0.41178149,19.660846 c -0.2112071,-0.664054 -0.341518,-1.730741 -0.3948498,-3.232073 -0.04378,-1.232495 3.137e-4,-2.667532 0.097988,-3.188975 0.097664,-0.521438 0.2731756,-1.319667 0.3900141,-1.77383 0.202247,-0.786144 0.2359713,-0.820583 0.70287471,-0.717899 0.2697359,0.05935 0.8326155,0.299372 1.2508436,0.533438 0.4182255,0.234073 1.0083211,0.708322 1.3113285,1.053893 0.3030098,0.345577 0.703579,0.973881 0.8901513,1.396238 0.276625,0.626193 0.3259621,1.04139 0.267355,2.249662 -0.059734,1.23157 -0.1527439,1.619503 -0.5509206,2.297704 -0.2634837,0.448788 -0.784483,1.058201 -1.1577791,1.354257 -0.3732935,0.296056 -1.0374364,0.646388 -1.475879,0.778522 -0.4384352,0.132122 -0.84636161,0.240241 -0.90651301,0.240241 -0.060106,0 -0.2512186,-0.446021 -0.4246096,-0.991165 z M 29.704934,20.444564 c -0.355342,-0.09449 -1.045512,-0.531417 -1.533698,-0.970927 -0.564984,-0.508664 -1.041863,-1.144603 -1.311998,-1.749616 -0.310209,-0.694763 -0.424389,-1.251949 -0.424389,-2.070941 0,-0.827293 0.112579,-1.368511 0.430266,-2.068525 0.23663,-0.521445 0.691729,-1.187439 1.011297,-1.479996 0.319565,-0.292559 0.861952,-0.691533 1.205311,-0.886607 0.343353,-0.195077 0.86186,-0.406942 1.152227,-0.470801 0.499086,-0.109771 0.537279,-0.08015 0.698621,0.541848 0.0939,0.361885 0.304216,1.51362 0.467445,2.559414 0.292544,1.874332 0.29127,1.934525 -0.08969,4.22065 -0.212566,1.27557 -0.423105,2.378551 -0.467868,2.451076 -0.04478,0.07253 -0.173654,0.123882 -0.286414,0.11406 -0.112776,-0.0097 -0.495761,-0.09512 -0.851103,-0.189639 z M 7.0555137,16.633136 c -0.241722,-0.257643 -0.37429,-0.619559 -0.37429,-1.021753 0,-0.4675 0.113095,-0.711872 0.453576,-0.980057 0.24946,-0.196495 0.641878,-0.357266 0.872036,-0.357266 0.230148,0 0.560148,0.07593 0.733325,0.168738 0.173179,0.09281 0.39211,0.39063 0.486527,0.661837 0.0944,0.271201 0.13184,0.701709 0.08316,0.956675 -0.04866,0.254974 -0.251212,0.577702 -0.450075,0.717182 -0.198864,0.139488 -0.601963,0.253596 -0.895771,0.253596 -0.335813,0 -0.673193,-0.148163 -0.908492,-0.398953 z m 15.4000953,0.0417 c -0.334439,-0.263431 -0.453576,-0.514494 -0.453576,-0.955907 0,-0.405763 0.13613,-0.734969 0.42254,-1.021754 0.266353,-0.266706 0.619213,-0.423107 0.954613,-0.423107 0.335402,0 0.688269,0.1564 0.954618,0.423107 0.232391,0.23271 0.422536,0.616909 0.422536,0.853777 0,0.236865 -0.0869,0.621665 -0.193138,0.855112 -0.106214,0.233446 -0.357979,0.468744 -0.559467,0.52289 -0.201473,0.05413 -0.530188,0.0995 -0.73045,0.100782 -0.20025,0.0013 -0.568213,-0.158407 -0.817681,-0.354915 z M 9.6937387,11.397633 c -0.189355,-0.04671 -0.478124,-0.252511 -0.641711,-0.45731 -0.163594,-0.2048 -0.299142,-0.575103 -0.30125,-0.822897 -0.002,-0.2608033 0.187289,-0.6419003 0.450004,-0.9049783 0.306494,-0.306902 0.637778,-0.454447 1.0203903,-0.454447 0.427205,0 0.667794,0.12954 0.97818,0.526674 0.283893,0.363239 0.389007,0.680951 0.338746,1.0238713 -0.04008,0.273462 -0.200331,0.612185 -0.356111,0.752727 -0.155779,0.140533 -0.4769,0.292826 -0.713596,0.338412 -0.236694,0.04561 -0.5852883,0.04469 -0.7746523,-0.002 z m 10.9360073,-0.07349 c -0.23403,-0.09351 -0.484601,-0.263137 -0.556835,-0.376922 -0.07223,-0.113778 -0.132503,-0.484249 -0.133971,-0.823246 -0.002,-0.4237643 0.121864,-0.7334903 0.395785,-0.9911733 0.224001,-0.210724 0.62171,-0.374801 0.908484,-0.374801 0.280548,0 0.682246,0.120749 0.892664,0.26834 0.308516,0.216391 0.382593,0.435021 0.382593,1.1292463 0,0.819442 -0.02876,0.872935 -0.596974,1.110677 -0.328336,0.137371 -0.657563,0.244854 -0.731613,0.238847 -0.07404,-0.0059 -0.326113,-0.08745 -0.560136,-0.180966 z M 2.5928003,9.1887727 c -0.4970636,-0.226195 -0.9037532,-0.488786 -0.9037532,-0.58354 0,-0.09476 0.170789,-0.467601 0.3795334,-0.828548 0.208743,-0.360946 0.6928943,-1.081449 1.0758969,-1.601116 0.3830002,-0.519667 1.0639878,-1.2953638 1.5133094,-1.7237703 0.4493149,-0.4284073 1.1852339,-1.0551977 1.6353669,-1.392867 0.450133,-0.33767 1.185012,-0.8249459 1.633063,-1.0828355 l 0.814638,-0.4688899 0.448254,0.9104578 c 0.362235,0.7357585 0.448246,1.1585274 0.448246,2.2032863 0,1.0284536 -0.08728,1.4699446 -0.426886,2.1589516 -0.234778,0.476367 -0.772687,1.185295 -1.195324,1.575397 -0.422639,0.3901 -1.010977,0.762616 -1.307421,0.827818 -0.296442,0.06519 -0.583179,0.190142 -0.637194,0.277652 -0.05401,0.08752 -0.655249,0.154646 -1.3360874,0.149188 -0.9216905,-0.0073 -1.4687361,-0.114977 -2.141642,-0.421184 z m 22.2240157,0.0076 c -0.487473,-0.2219 -1.187229,-0.704815 -1.555007,-1.073091 -0.367778,-0.368276 -0.818048,-0.9773 -1.000607,-1.353385 -0.245837,-0.506457 -0.333645,-1.06378 -0.338574,-2.1489977 -0.0056,-1.2197404 0.06337,-1.6023765 0.41117,-2.2839965 0.229832,-0.4503349 0.450329,-0.8187904 0.490038,-0.8187904 0.03971,0 0.703798,0.4149948 1.47575,0.9222111 0.771951,0.5072168 1.932856,1.4574449 2.579797,2.1116193 0.64694,0.6541742 1.557154,1.7582872 2.022695,2.4535832 0.46554,0.695296 0.846436,1.364533 0.846436,1.487192 0,0.122654 -0.09683,0.296729 -0.215182,0.38682 -0.118364,0.09009 -0.566361,0.293515 -0.995581,0.452052 -0.429207,0.158538 -1.242591,0.283776 -1.8075,0.278318 -0.692642,-0.0068 -1.315738,-0.141344 -1.913427,-0.413479 z M 14.678167,8.9217407 c -0.181953,-0.201333 -0.319324,-0.610827 -0.319324,-0.951904 0,-0.365704 0.130598,-0.726983 0.335681,-0.928633 0.184628,-0.181532 0.529341,-0.375425 0.766044,-0.430877 0.276391,-0.06475 0.630512,0.02296 0.989825,0.245163 0.492808,0.304761 0.55947,0.435526 0.55947,1.0975 0,0.509137 -0.101529,0.843522 -0.31481,1.036794 -0.182929,0.165783 -0.604421,0.285281 -1.006182,0.285281 -0.478351,0 -0.789772,-0.108867 -1.010704,-0.353324 z M 14.075359,4.8125928 C 13.834233,4.7338896 13.330716,4.4740171 12.956424,4.2350983 12.58214,3.9961804 12.105032,3.6007642 11.896194,3.3563985 11.687351,3.1120326 11.358129,2.5838908 11.164583,2.1827485 10.971047,1.7816073 10.812681,1.2900079 10.812681,1.0903083 c 0,-0.29097392 0.196597,-0.42498752 0.989824,-0.67472702 0.648087,-0.2040404 1.762472,-0.340864 3.227702,-0.3962817 1.230829,-0.046555 2.663924,-0.00597 3.184662,0.090393 0.520732,0.096276 1.309711,0.2780331 1.753286,0.4039032 l 0.806486,0.2288412 -0.30927,0.91274392 c -0.170093,0.5020077 -0.539461,1.1975424 -0.820809,1.545631 -0.281349,0.348088 -0.88775,0.8643963 -1.347551,1.1473502 -0.731327,0.4500461 -1.020515,0.5202864 -2.30962,0.5609834 -0.810488,0.025585 -1.670904,-0.017869 -1.912032,-0.096575 z"
       style="fill:#e33d29;fill-opacity:1;stroke-width:0.17226" />
    <g
       transform="translate(0.52916687,0.52916637)"
       style="font-style:normal;font-weight:normal;font-size:10.5833px;line-height:1.25;font-family:sans-serif;letter-spacing:0px;word-spacing:0px;fill:#000000;fill-opacity:1;stroke:#e33d29;stroke-width:0.264583;stroke-opacity:1"
       id="text863"
       aria-label="+">
      <g
         id="g839">
        <rect
           transform="translate(-0.52916687,-0.52916637)"
           style="fill:#e33d29;fill-opacity:1;stroke:none;stroke-width:0.640783;stroke-linecap:round;stroke-linejoin:round"
           id="rect859"
           width="15.051852"
           height="15.051852"
           x="18.814816"
           y="18.814816"
           ry="2.8978179" />
        <path
           inkscape:original-d="m 30.327129,26.389568 h -3.918754 v 3.937565 h -1.193602 v -3.937565 h -3.918755 v -1.155985 h 3.918755 v -3.937565 h 1.193602 v 3.937565 h 3.918754 z"
           inkscape:path-effect="#path-effect836"
           d="m 30.062546,26.389568 -3.389588,0 a 0.26458333,0.26458333 135 0 0 -0.264583,0.264583 v 3.408399 a 0.26458333,0.26458333 135 0 1 -0.264583,0.264583 l -0.664436,0 A 0.26458333,0.26458333 45 0 1 25.214773,30.06255 l 0,-3.408399 A 0.26458333,0.26458333 45 0 0 24.95019,26.389568 h -3.389589 a 0.26458333,0.26458333 45 0 1 -0.264583,-0.264583 l 0,-0.626819 a 0.26458333,0.26458333 135 0 1 0.264583,-0.264583 H 24.95019 A 0.26458333,0.26458333 135 0 0 25.214773,24.969 l 0,-3.408399 a 0.26458333,0.26458333 135 0 1 0.264583,-0.264583 l 0.664436,0 a 0.26458333,0.26458333 45 0 1 0.264583,0.264583 V 24.969 a 0.26458333,0.26458333 45 0 0 0.264583,0.264583 h 3.389588 a 0.26458333,0.26458333 45 0 1 0.264583,0.264583 v 0.626819 a 0.26458333,0.26458333 135 0 1 -0.264583,0.264583 z"
           style="fill:#ffffff;fill-opacity:1;stroke:none;stroke-width:0.36903;stroke-opacity:1"
           id="path865" />
      </g>
    </g>
  </g>
</svg>
